# xmcd
#
# Track frame offsets:
#	150
#	14199
#	25761
#	39189
#	53437
#	65806
#	79920
#	92435
#	105300
#	117675
#	130248
#	143234
#	157283
#	168638
#	181472
#	195055
#	206577
#	218829
#	230622
#	242962
#	256477
#	270036
#
# Disc length: 3764 seconds
#
# Revision: 1
# Processed by: cddbd v1.4PL0 Copyright (c) Steve Scherf et al.
# Submitted via: CDmax 2.0
#
DISCID=360eb216
DTITLE=Gertrude 'Ma' Rainey - Countin' the Blues
DYEAR=2001
DGENRE=Blues
TTITLE0=Countin' the Blues
TTITLE1=Shave 'Em Dry
TTITLE2=Farewell Daddy
TTITLE3=Oh My Babe Blues
TTITLE4=Jealousy Blues
TTITLE5=Sissy Blues
TTITLE6=Soon This Morning
TTITLE7=Don't Fish in My Sea
TTITLE8=Georgia Cake Walk
TTITLE9=New Boll Weevil Blues
TTITLE10=Moonshine Blues
TTITLE11=Ice Bag Papa
TTITLE12=Black Cat Hoot Owl Blues
TTITLE13=Log Camp Blues
TTITLE14=Hear Me Talking to You
TTITLE15=Hustlin' Blues
TTITLE16=Prove It on Me Blues
TTITLE17=Victim of the Blues
TTITLE18=Travelling Blues
TTITLE19=Deep Moaning Blues
TTITLE20=Ma and Pa Poorhouse Blues
TTITLE21=Big Feeling Blues
EXTD=Track 1 recorded on 16th October, 1924\n\tLouis Artmstrong - Cornet, Cha
EXTD=rlie Green - Trombone, Buster Bailey - Clarinet, \n\tFletcher Henderso
EXTD=n - Piano, Charlie Dixon - Banjo, Kaiser Marshall - Drums\n\nTrac
EXTD=k 2 - 3 recorderd in  August, 1924\n\nTrack 4 recorderd in  January, 192
EXTD=6\n\tJoe Smith - Cornet, Charlie Green - Trombone, Buster Baliey - Clari
EXTD=net, \n\tColeman Hawkins - Baritone saxophone, Fletcher Henderson - Pian
EXTD=o, Charlie Dixon - Banjo\n\nTrack 5 recorderd in  March, 1926\n\tDave Ne
EXTD=lson - Cornet, Albert Wynn - Trombone, Stump Johnson - Alto Saxophone, \
EXTD=n\tThomas Dorsey - Piano, P. C. Williams - Drums\n\nTrack 6 recorderd i
EXTD=n  August, 1926\n\tKid Henderson - Cornet, Albert Wynn - Trombone, Lucie
EXTD=n Brown - Clarinet, Alto saxophone, \n\tLil Henderson - Piano, Happy Bol
EXTD=ton - Drums\n\nTracks 7 - 8 Recorded in February, 1927\n\tB. T. Wingfiel
EXTD=d - Cornet, Junie Cob - Clarinet, Tiny Parham -Piano, Tampa Red - Kazoo
EXTD=, Thomas Dorsey - piano\n\nTracks 9-12 recorded in December, 1927\n\tShi
EXTD=rley Cay - Cornet, Ike Rodgers -Trombone, Artie Starks - Clarinet\n\nTra
EXTD=cks 13 - 20 recorded in june, 1928\n\tHerman Brown - Kazoo, Thomas Dorse
EXTD=y - Piano, Martell Pettiford - Banjo, Carl Reid - Jug\n\nTracks 21 - 2
EXTD=2 recorded in October and December 1928\n\tPapa Charlie Jackson - Duets
EXTT0=by Rainey
EXTT1=by Rainey/Jackson
EXTT2=by Rainey
EXTT3=by Rainey/Whitfield
EXTT4=by Glasco/Glasco
EXTT5=by Rainey
EXTT6=by Rainey/Smith
EXTT7=by Rainey/Smith
EXTT8=by Mills
EXTT9=by Austin
EXTT10=by Rainey
EXTT11=by Mills
EXTT12=by Rainey/Dorsey
EXTT13=by Rainey/Dorsey
EXTT14=by Rainey
EXTT15=by Rainey/Nix
EXTT16=by Rainey
EXTT17=by Rainey/Dorsey
EXTT18=by Parth
EXTT19=by Rainey
EXTT20=by Rainey/Jackson
EXTT21=by Rainey/Jackson
PLAYORDER=
